<svg xmlns="http://www.w3.org/2000/svg" style="display: none;"><symbol id="comment-black-oval-bubble-shape" viewBox="0 0 511.626 511.626"><title>comment-black-oval-bubble-shape</title><path d="M477.371,127.44c-22.843-28.074-53.871-50.249-93.076-66.523c-39.204-16.272-82.035-24.41-128.478-24.41 c-34.643,0-67.762,4.805-99.357,14.417c-31.595,9.611-58.812,22.602-81.653,38.97c-22.845,16.37-41.018,35.832-54.534,58.385 C6.757,170.833,0,194.484,0,219.228c0,28.549,8.61,55.3,25.837,80.234c17.227,24.931,40.778,45.871,70.664,62.811 c-2.096,7.611-4.57,14.846-7.426,21.693c-2.855,6.852-5.424,12.474-7.708,16.851c-2.286,4.377-5.376,9.233-9.281,14.562 c-3.899,5.328-6.849,9.089-8.848,11.275c-1.997,2.19-5.28,5.812-9.851,10.849c-4.565,5.048-7.517,8.329-8.848,9.855 c-0.193,0.089-0.953,0.952-2.285,2.567c-1.331,1.615-1.999,2.423-1.999,2.423l-1.713,2.566c-0.953,1.431-1.381,2.334-1.287,2.707 c0.096,0.373-0.094,1.331-0.57,2.851c-0.477,1.526-0.428,2.669,0.142,3.433v0.284c0.765,3.429,2.43,6.187,4.998,8.277 c2.568,2.092,5.474,2.95,8.708,2.563c12.375-1.522,23.223-3.606,32.548-6.276c49.87-12.758,93.649-35.782,131.334-69.097 c14.272,1.522,28.072,2.286,41.396,2.286c46.442,0,89.271-8.138,128.479-24.417c39.208-16.272,70.233-38.448,93.072-66.517 c22.843-28.062,34.263-58.663,34.263-91.781C511.626,186.108,500.207,155.509,477.371,127.44z"/></symbol><symbol id="instagram-symbol" viewBox="0 0 438.536 438.536"><title>instagram-symbol</title><path d="M421.981,16.562C410.941,5.519,397.711,0,382.298,0H56.248C40.83,0,27.604,5.521,16.561,16.562 C5.52,27.6,0.001,40.828,0.001,56.243V382.29c0,15.413,5.518,28.644,16.56,39.683c11.043,11.04,24.272,16.563,39.687,16.563 h326.046c15.41,0,28.644-5.523,39.684-16.563c11.043-11.039,16.557-24.27,16.557-39.683V56.243 C438.534,40.825,433.021,27.604,421.981,16.562z M157.462,158.025c17.224-16.652,37.924-24.982,62.097-24.982 c24.36,0,45.153,8.33,62.381,24.982c17.228,16.655,25.837,36.785,25.837,60.386c0,23.598-8.609,43.729-25.837,60.379 c-17.228,16.659-38.014,24.988-62.381,24.988c-24.172,0-44.87-8.336-62.097-24.988c-17.228-16.652-25.841-36.781-25.841-60.379 C131.621,194.81,140.234,174.681,157.462,158.025z M388.865,370.589c0,4.945-1.718,9.083-5.141,12.416 c-3.433,3.33-7.519,4.996-12.282,4.996h-305.2c-4.948,0-9.091-1.666-12.419-4.996c-3.333-3.326-4.998-7.471-4.998-12.416V185.575 H89.08c-3.805,11.993-5.708,24.462-5.708,37.402c0,36.553,13.322,67.715,39.969,93.511c26.65,25.786,58.721,38.685,96.217,38.685 c24.744,0,47.583-5.903,68.527-17.703c20.937-11.807,37.486-27.839,49.676-48.112c12.183-20.272,18.274-42.4,18.274-66.38 c0-12.94-1.91-25.406-5.715-37.402h38.547v185.014H388.865z M388.865,115.626c0,5.52-1.903,10.184-5.716,13.99 c-3.805,3.809-8.466,5.711-13.989,5.711h-49.676c-5.517,0-10.185-1.903-13.99-5.711c-3.806-3.806-5.708-8.47-5.708-13.99V68.522 c0-5.33,1.902-9.945,5.708-13.848c3.806-3.901,8.474-5.854,13.99-5.854h49.676c5.523,0,10.185,1.952,13.989,5.854 c3.812,3.903,5.716,8.518,5.716,13.848V115.626z"/></symbol><symbol id="home" viewBox="0 0 460.298 460.297"><title>home</title><path d="M230.149,120.939L65.986,256.274c0,0.191-0.048,0.472-0.144,0.855c-0.094,0.38-0.144,0.656-0.144,0.852v137.041 c0,4.948,1.809,9.236,5.426,12.847c3.616,3.613,7.898,5.431,12.847,5.431h109.63V303.664h73.097v109.64h109.629 c4.948,0,9.236-1.814,12.847-5.435c3.617-3.607,5.432-7.898,5.432-12.847V257.981c0-0.76-0.104-1.334-0.288-1.707L230.149,120.939 z"/><path d="M457.122,225.438L394.6,173.476V56.989c0-2.663-0.856-4.853-2.574-6.567c-1.704-1.712-3.894-2.568-6.563-2.568h-54.816 c-2.666,0-4.855,0.856-6.57,2.568c-1.711,1.714-2.566,3.905-2.566,6.567v55.673l-69.662-58.245 c-6.084-4.949-13.318-7.423-21.694-7.423c-8.375,0-15.608,2.474-21.698,7.423L3.172,225.438c-1.903,1.52-2.946,3.566-3.14,6.136 c-0.193,2.568,0.472,4.811,1.997,6.713l17.701,21.128c1.525,1.712,3.521,2.759,5.996,3.142c2.285,0.192,4.57-0.476,6.855-1.998 L230.149,95.817l197.57,164.741c1.526,1.328,3.521,1.991,5.996,1.991h0.858c2.471-0.376,4.463-1.43,5.996-3.138l17.703-21.125 c1.522-1.906,2.189-4.145,1.991-6.716C460.068,229.007,459.021,226.961,457.122,225.438z"/></symbol><symbol id="envelope" viewBox="0 0 511.626 511.626"><title>envelope</title><path d="M49.106,178.729c6.472,4.567,25.981,18.131,58.528,40.685c32.548,22.554,57.482,39.92,74.803,52.099 c1.903,1.335,5.946,4.237,12.131,8.71c6.186,4.476,11.326,8.093,15.416,10.852c4.093,2.758,9.041,5.852,14.849,9.277 c5.806,3.422,11.279,5.996,16.418,7.7c5.14,1.718,9.898,2.569,14.275,2.569h0.287h0.288c4.377,0,9.137-0.852,14.277-2.569 c5.137-1.704,10.615-4.281,16.416-7.7c5.804-3.429,10.752-6.52,14.845-9.277c4.093-2.759,9.229-6.376,15.417-10.852 c6.184-4.477,10.232-7.375,12.135-8.71c17.508-12.179,62.051-43.11,133.615-92.79c13.894-9.703,25.502-21.411,34.827-35.116 c9.332-13.699,13.993-28.07,13.993-43.105c0-12.564-4.523-23.319-13.565-32.264c-9.041-8.947-19.749-13.418-32.117-13.418H45.679 c-14.655,0-25.933,4.948-33.832,14.844C3.949,79.562,0,91.934,0,106.779c0,11.991,5.236,24.985,15.703,38.974 C26.169,159.743,37.307,170.736,49.106,178.729z"/><path d="M483.072,209.275c-62.424,42.251-109.824,75.087-142.177,98.501c-10.849,7.991-19.65,14.229-26.409,18.699 c-6.759,4.473-15.748,9.041-26.98,13.702c-11.228,4.668-21.692,6.995-31.401,6.995h-0.291h-0.287 c-9.707,0-20.177-2.327-31.405-6.995c-11.228-4.661-20.223-9.229-26.98-13.702c-6.755-4.47-15.559-10.708-26.407-18.699 c-25.697-18.842-72.995-51.68-141.896-98.501C17.987,202.047,8.375,193.762,0,184.437v226.685c0,12.57,4.471,23.319,13.418,32.265 c8.945,8.949,19.701,13.422,32.264,13.422h420.266c12.56,0,23.315-4.473,32.261-13.422c8.949-8.949,13.418-19.694,13.418-32.265 V184.437C503.441,193.569,493.927,201.854,483.072,209.275z"/></symbol><symbol id="youtube-logo" viewBox="0 0 511.626 511.627"><title>youtube-logo</title><path d="M511.339,212.987c-0.186-10.277-1-23.271-2.423-38.97c-1.431-15.708-3.478-29.746-6.14-42.115 c-3.046-13.893-9.661-25.6-19.842-35.117c-10.181-9.519-22.031-15.037-35.549-16.562c-42.258-4.755-106.115-7.135-191.573-7.135 c-85.459,0-149.317,2.38-191.572,7.135c-13.516,1.524-25.319,7.043-35.404,16.562c-10.089,9.514-16.656,21.221-19.702,35.117 c-2.852,12.373-4.996,26.41-6.423,42.115c-1.425,15.699-2.235,28.688-2.424,38.97C0.094,223.265,0,237.539,0,255.813 c0,18.272,0.094,32.55,0.288,42.826c0.189,10.284,0.999,23.271,2.424,38.969c1.427,15.707,3.474,29.745,6.139,42.116 c3.046,13.897,9.659,25.602,19.842,35.115c10.185,9.517,22.036,15.036,35.548,16.56c42.255,4.76,106.109,7.139,191.572,7.139 c85.466,0,149.315-2.379,191.573-7.139c13.518-1.523,25.316-7.043,35.405-16.56c10.089-9.514,16.652-21.225,19.698-35.115 c2.854-12.371,4.996-26.409,6.427-42.116c1.423-15.697,2.231-28.691,2.423-38.969c0.191-10.276,0.287-24.554,0.287-42.826 C511.626,237.539,511.531,223.265,511.339,212.987z M356.883,271.231L210.706,362.59c-2.666,1.903-5.905,2.854-9.71,2.854 c-2.853,0-5.803-0.764-8.848-2.286c-6.28-3.422-9.419-8.754-9.419-15.985V164.454c0-7.229,3.14-12.561,9.419-15.986 c6.473-3.431,12.657-3.239,18.558,0.571l146.178,91.36c5.708,3.23,8.562,8.372,8.562,15.415 C365.446,262.854,362.591,267.998,356.883,271.231z"/></symbol><symbol id="google-plus" viewBox="0 0 438.536 438.536"><title>google-plus</title><path d="M365.449,109.631V36.545h-36.542v73.085H255.82v36.547h73.087v73.089h36.542v-73.089h73.083v210.131 c0,22.647-8.042,42.018-24.126,58.102c-16.077,16.084-35.446,24.126-58.095,24.126H222.697 c7.419-13.894,11.129-28.835,11.129-44.823c0-12.566-2.095-24.223-6.276-34.975c-4.188-10.749-9.471-19.602-15.847-26.549 c-6.377-6.94-13.228-13.706-20.555-20.27c-7.329-6.563-14.178-12.228-20.557-16.991c-6.374-4.753-11.658-9.944-15.843-15.554 c-4.187-5.623-6.279-11.283-6.279-16.991c0-6.854,2.19-13.325,6.567-19.417c4.38-6.088,9.71-11.94,15.987-17.556 c6.279-5.619,12.515-11.755,18.702-18.42c6.186-6.658,11.466-15.511,15.843-26.549c4.38-11.038,6.567-23.507,6.567-37.404 c0-13.894-2.522-27.74-7.564-41.54s-12.231-25.078-21.556-33.835c-1.142-1.138-2.474-2.185-3.997-3.14 c-1.521-0.95-2.714-1.667-3.568-2.141c-0.859-0.478-1.809-1.381-2.855-2.712c-1.049-1.331-2.046-2.95-2.996-4.853h38.543 l38.546-18.272H121.913c-26.267,0-49.536,3.662-69.805,10.994C31.84,54.866,14.469,67.572,0.003,85.651 c0-23.984,7.708-44.252,23.124-60.813C38.547,8.276,58.243,0,82.228,0h274.084c22.648,0,42.018,8.042,58.095,24.123 c16.084,16.084,24.126,35.453,24.126,58.102v27.406H365.449z M56.821,208.56c6.086,7.904,13.513,14.326,22.267,19.274 s17.983,7.419,27.694,7.419c18.464,0,31.833-5.763,40.114-17.276c8.28-11.511,12.419-26.787,12.419-45.821 c0-11.613-1.524-23.791-4.563-36.54c-3.047-12.751-7.52-25.122-13.421-37.113c-5.9-11.991-13.894-21.892-23.982-29.696 c-10.085-7.804-21.411-11.708-33.974-11.708c-17.701,0-31.455,6.567-41.258,19.7c-9.801,13.134-14.703,28.835-14.703,47.11 c0,8.942,1.093,18.361,3.284,28.262c2.19,9.898,5.568,19.799,10.138,29.696C45.4,191.764,50.73,200.662,56.821,208.56z M91.935,275.512c0-4.757,1.997-12.946,5.996-24.558c-7.233,0.951-13.894,1.431-19.985,1.431c-32.355,0-58.336-11.232-77.941-33.69 v123.624c28.737-14.852,65.378-22.935,109.918-24.27C97.93,302.437,91.935,288.263,91.935,275.512z M189.567,396.416 c-0.953-3.135-2.618-6.416-4.996-9.849c-2.38-3.422-4.377-6.324-5.996-8.706c-1.617-2.375-4.139-5.182-7.566-8.418 c-3.424-3.234-6.042-5.661-7.851-7.279c-1.807-1.619-4.853-4.042-9.135-7.279c-4.278-3.237-7.233-5.428-8.848-6.563 c-1.615-1.144-4.755-3.333-9.419-6.57s-7.566-5.236-8.708-5.996c-3.235-0.376-7.898-0.567-13.99-0.567 c-10.466,0-20.651,0.66-30.546,1.994c-9.9,1.332-20.083,3.614-30.551,6.852c-10.467,3.237-19.984,7.943-28.549,14.13 c-8.564,6.188-15.131,13.559-19.702,22.128c5.142,17.316,14.993,31.354,29.552,42.106c14.564,10.759,30.883,16.136,48.966,16.136 H190.72c1.903-6.28,2.853-13.042,2.853-20.27c0-3.997-0.428-7.851-1.293-11.563C191.425,402.986,190.517,399.558,189.567,396.416z"/></symbol><symbol id="twitter" viewBox="0 0 438.536 438.536"><title>twitter</title><path d="M414.41,24.123C398.333,8.042,378.963,0,356.315,0H82.228C59.58,0,40.21,8.042,24.126,24.123 C8.045,40.207,0.003,59.576,0.003,82.225v274.084c0,22.647,8.042,42.018,24.123,58.102c16.084,16.084,35.454,24.126,58.102,24.126 h274.084c22.648,0,42.018-8.042,58.095-24.126c16.084-16.084,24.126-35.454,24.126-58.102V82.225 C438.532,59.576,430.49,40.204,414.41,24.123z M335.471,168.735c0.191,1.713,0.288,4.278,0.288,7.71 c0,15.989-2.334,32.025-6.995,48.104c-4.661,16.087-11.8,31.504-21.416,46.254c-9.606,14.749-21.074,27.791-34.396,39.115 c-13.325,11.32-29.311,20.365-47.968,27.117c-18.648,6.762-38.637,10.143-59.953,10.143c-33.116,0-63.76-8.952-91.931-26.836 c4.568,0.568,9.329,0.855,14.275,0.855c27.6,0,52.439-8.565,74.519-25.7c-12.941-0.185-24.506-4.179-34.688-11.991 c-10.185-7.803-17.273-17.699-21.271-29.691c4.947,0.76,8.658,1.137,11.132,1.137c4.187,0,9.042-0.76,14.56-2.279 c-13.894-2.669-25.598-9.562-35.115-20.697c-9.519-11.136-14.277-23.84-14.277-38.114v-0.571 c10.085,4.755,19.602,7.229,28.549,7.422c-17.321-11.613-25.981-28.265-25.981-49.963c0-10.66,2.758-20.747,8.278-30.264 c15.035,18.464,33.311,33.213,54.816,44.252c21.507,11.038,44.54,17.227,69.092,18.558c-0.95-3.616-1.427-8.186-1.427-13.704 c0-16.562,5.853-30.692,17.56-42.399c11.703-11.706,25.837-17.561,42.394-17.561c17.515,0,32.079,6.283,43.688,18.846 c13.134-2.474,25.892-7.33,38.26-14.56c-4.757,14.652-13.613,25.788-26.55,33.402c12.368-1.716,23.88-4.95,34.537-9.708 C357.458,149.793,347.462,160.166,335.471,168.735z"/></symbol><symbol id="github" viewBox="0 0 438.536 438.536"><title>github</title><path d="M158.173,352.599c-3.049,0.568-4.381,1.999-3.999,4.281c0.38,2.283,2.093,3.046,5.138,2.283 c3.049-0.76,4.38-2.095,3.997-3.997C162.931,353.074,161.218,352.216,158.173,352.599z"/><path d="M141.898,354.885c-3.046,0-4.568,1.041-4.568,3.139c0,2.474,1.619,3.518,4.853,3.138c3.046,0,4.57-1.047,4.57-3.138 C146.753,355.553,145.134,354.502,141.898,354.885z"/><path d="M119.629,354.022c-0.76,2.095,0.478,3.519,3.711,4.284c2.855,1.137,4.664,0.568,5.424-1.714 c0.572-2.091-0.666-3.61-3.711-4.568C122.197,351.265,120.39,351.922,119.629,354.022z"/><path d="M414.41,24.123C398.326,8.042,378.964,0,356.309,0H82.225C59.577,0,40.208,8.042,24.123,24.123 C8.042,40.207,0,59.576,0,82.225v274.088c0,22.65,8.042,42.017,24.123,58.098c16.084,16.084,35.454,24.126,58.102,24.126h63.953 c4.184,0,7.327-0.144,9.42-0.424c2.092-0.288,4.184-1.526,6.279-3.717c2.096-2.187,3.14-5.376,3.14-9.562 c0-0.568-0.05-7.046-0.144-19.417c-0.097-12.375-0.144-22.176-0.144-29.41l-6.567,1.143c-4.187,0.76-9.469,1.095-15.846,0.999 c-6.374-0.096-12.99-0.76-19.841-1.998c-6.855-1.239-13.229-4.093-19.13-8.562c-5.898-4.477-10.085-10.328-12.56-17.559 l-2.856-6.571c-1.903-4.373-4.899-9.229-8.992-14.554c-4.093-5.332-8.232-8.949-12.419-10.852l-1.999-1.428 c-1.331-0.951-2.568-2.098-3.711-3.429c-1.141-1.335-1.997-2.669-2.568-3.997c-0.571-1.335-0.097-2.43,1.427-3.289 c1.524-0.855,4.281-1.279,8.28-1.279l5.708,0.855c3.808,0.76,8.516,3.042,14.134,6.851c5.614,3.806,10.229,8.754,13.846,14.843 c4.38,7.806,9.657,13.75,15.846,17.843c6.184,4.097,12.419,6.143,18.699,6.143s11.704-0.476,16.274-1.424 c4.565-0.954,8.848-2.385,12.847-4.288c1.713-12.751,6.377-22.559,13.988-29.41c-10.848-1.143-20.602-2.854-29.265-5.14 c-8.658-2.286-17.605-5.995-26.835-11.136c-9.234-5.14-16.894-11.512-22.985-19.13c-6.09-7.618-11.088-17.61-14.987-29.978 c-3.901-12.375-5.852-26.652-5.852-42.829c0-23.029,7.521-42.637,22.557-58.814c-7.044-17.32-6.379-36.732,1.997-58.242 c5.52-1.714,13.706-0.428,24.554,3.855c10.85,4.286,18.794,7.951,23.84,10.992c5.046,3.042,9.089,5.614,12.135,7.71 c17.705-4.949,35.976-7.423,54.818-7.423c18.841,0,37.115,2.474,54.821,7.423l10.849-6.852c7.426-4.57,16.18-8.757,26.269-12.562 c10.088-3.806,17.795-4.854,23.127-3.14c8.562,21.51,9.328,40.922,2.279,58.241c15.036,16.179,22.559,35.786,22.559,58.815 c0,16.18-1.951,30.505-5.852,42.969c-3.898,12.467-8.939,22.463-15.13,29.981c-6.184,7.519-13.894,13.843-23.124,18.986 c-9.232,5.137-18.178,8.853-26.84,11.132c-8.661,2.286-18.414,4.004-29.263,5.147c9.891,8.562,14.839,22.072,14.839,40.538v68.238 c0,3.237,0.472,5.852,1.424,7.851c0.958,1.998,2.478,3.374,4.571,4.141c2.102,0.76,3.949,1.235,5.571,1.424 c1.622,0.191,3.949,0.287,6.995,0.287h63.953c22.648,0,42.018-8.042,58.095-24.126c16.084-16.084,24.126-35.454,24.126-58.102 V82.225C438.533,59.576,430.491,40.204,414.41,24.123z"/><path d="M86.793,319.195c-1.331,0.948-1.141,2.471,0.572,4.565c1.906,1.902,3.427,2.189,4.57,0.855 c1.331-0.948,1.141-2.471-0.575-4.569C89.458,318.336,87.936,318.049,86.793,319.195z"/><path d="M77.374,312.057c-0.57,1.335,0.096,2.478,1.999,3.426c1.521,0.955,2.762,0.767,3.711-0.568 c0.57-1.335-0.096-2.478-1.999-3.433C79.182,310.91,77.945,311.102,77.374,312.057z"/><path d="M95.646,330.331c-1.715,0.948-1.715,2.666,0,5.137c1.713,2.478,3.328,3.142,4.853,1.998c1.714-1.334,1.714-3.142,0-5.427 C98.978,329.571,97.359,328.993,95.646,330.331z"/><path d="M105.641,343.174c-1.714,1.526-1.336,3.327,1.142,5.428c2.281,2.279,4.185,2.566,5.708,0.849 c1.524-1.519,1.143-3.326-1.142-5.42C109.068,341.751,107.164,341.463,105.641,343.174z"/></symbol><symbol id="linkedin" viewBox="0 0 438.536 438.536"><title>linkedin</title><path d="M414.41,24.123C398.333,8.042,378.963,0,356.315,0H82.228C59.58,0,40.21,8.042,24.126,24.123 C8.045,40.207,0.003,59.576,0.003,82.225v274.084c0,22.647,8.042,42.018,24.123,58.102c16.084,16.084,35.454,24.126,58.102,24.126 h274.084c22.648,0,42.018-8.042,58.095-24.126c16.084-16.084,24.126-35.454,24.126-58.102V82.225 C438.532,59.576,430.49,40.204,414.41,24.123z M133.618,367.157H67.666V169.016h65.952V367.157z M127.626,132.332 c-6.851,6.567-15.893,9.851-27.124,9.851h-0.288c-10.848,0-19.648-3.284-26.407-9.851c-6.76-6.567-10.138-14.703-10.138-24.41 c0-9.897,3.476-18.083,10.421-24.556c6.95-6.471,15.942-9.708,26.98-9.708c11.039,0,19.89,3.237,26.553,9.708 c6.661,6.473,10.088,14.659,10.277,24.556C137.899,117.625,134.477,125.761,127.626,132.332z M370.873,367.157h-65.952v-105.92 c0-29.879-11.036-44.823-33.116-44.823c-8.374,0-15.42,2.331-21.128,6.995c-5.715,4.661-9.996,10.324-12.847,16.991 c-1.335,3.422-1.999,8.75-1.999,15.981v110.775h-65.952c0.571-119.529,0.571-185.579,0-198.142h65.952v27.974 c13.867-21.681,33.558-32.544,59.101-32.544c22.84,0,41.21,7.52,55.104,22.554c13.895,15.037,20.841,37.214,20.841,66.519v113.64 H370.873z"/></symbol><symbol id="social-media" viewBox="0 0 438.536 438.536"><title>social-media</title><path d="M414.41,24.123C398.333,8.042,378.963,0,356.315,0H82.228C59.58,0,40.21,8.042,24.126,24.123 C8.045,40.207,0.003,59.576,0.003,82.225v274.084c0,22.647,8.042,42.018,24.123,58.102c16.084,16.084,35.454,24.126,58.102,24.126 h274.084c22.648,0,42.018-8.042,58.095-24.126c16.084-16.084,24.126-35.454,24.126-58.102V82.225 C438.532,59.576,430.49,40.204,414.41,24.123z M373.155,225.548h-49.963V406.84h-74.802V225.548H210.99V163.02h37.401v-37.402 c0-26.838,6.283-47.107,18.843-60.813c12.559-13.706,33.304-20.555,62.242-20.555h49.963v62.526h-31.401 c-10.663,0-17.467,1.853-20.417,5.568c-2.949,3.711-4.428,10.23-4.428,19.558v31.119h56.534L373.155,225.548z"/></symbol></svg>